<svg version="1.1" id="Capa_1" xmlns="http://www.w3.org/2000/svg" xmlns:xlink="http://www.w3.org/1999/xlink" x="0px" y="0px"
	 viewBox="0 0 100 100" style="enable-background:new 0 0 100 100;" xml:space="preserve">
<path d="M67.5,58.5C58.4,58.5,51,65.9,51,75s7.4,16.5,16.5,16.5S84,84.1,84,75S76.6,58.5,67.5,58.5z M67.5,88.5  
C60.1,88.5,54,82.4,54,75s6.1-13.5,13.5-13.5S81,67.6,81,75S74.9,88.5,67.5,88.5z M76.5,75c0,0.8-0.7,1.5-1.5,1.5H60  
c-0.8,0-1.5-0.7-1.5-1.5s0.7-1.5,1.5-1.5h15C75.8,73.5,76.5,74.2,76.5,75z M62.8,8c1.1,0,2,0.9,2,2s-0.9,2-2,2H18.7  
c-1.1,0-2-0.9-2-2s0.9-2,2-2H62.8z M69.5,53.1V15c0-1.1-0.9-2-2-2H18c-1.9,0-3.5-1.3-3.5-3s1.6-3,3.5-3h49.5c1.1,0,2-0.9,2-2  
s-0.9-2-2-2H18c-4.1,0-7.5,3.1-7.5,7v59c0,4.4,3.9,8,8.6,8h26.5c1,11.2,10.4,20,21.9,20c12.1,0,22-9.9,22-22  
C89.5,63.5,80.7,54.1,69.5,53.1z M14.5,69V16.2c1,0.5,2.2,0.8,3.5,0.8h47.5v36.1c-6,0.5-11.3,3.5-14.9,7.9V47.3  
c0-0.9-0.7-1.6-1.6-1.6V34.3c1.1-0.1,2-1,2-2.1V20.8h-1.1v9.3h-0.6v-9.3H48v9.3h-0.6v-9.3h-1.3v9.3h-0.6v-9.3h-1.3v9.3h-0.6v-9.3  
h-1.1v11.4c0,1.2,0.9,2.1,2.1,2.1v11.4c-0.9,0-1.6,0.7-1.6,1.6v21.4c0,1.1,0.9,2,2,2h0.8c-0.1,0.7-0.3,1.5-0.3,2.2H19.1  
C16.6,73,14.5,71.2,14.5,69z M67.5,93c-9.9,0-18-8.1-18-18s8.1-18,18-18s18,8.1,18,18S77.4,93,67.5,93z M36.5,47.3v21.4  
c0,1.1-0.9,2-2,2H31c-1.1,0-2-0.9-2-2V47.4c0-0.9,0.7-1.6,1.6-1.6h0v-25c3.1,0,5.7,2.6,5.7,5.7v13.1c0,0.8-0.6,1.4-1.4,1.4v4.8  
C35.8,45.8,36.5,46.5,36.5,47.3z"/></svg>